<svg xmlns="http://www.w3.org/2000/svg" viewBox="0 0 58.35755 90.51493">
  <title>breadcrumbs</title>
  <path d="M53.13764,19.42924H5.21973a3.29117,3.29117,0,0,1-3.29117-3.29117V9.84029H56.4288v6.29778A3.29117,3.29117,0,0,1,53.13764,19.42924ZM52.43641,27.386V24.41426H5.921V27.386a6.0383,6.0383,0,0,0,6.0383,6.0383H46.39811A6.0383,6.0383,0,0,0,52.43641,27.386ZM47.68421,62.5346,44.3263,33.42427h-30.295L10.67335,62.5346ZM12.91651,0H1.92856V13.0721h10.988ZM56.4288,0h-10.988V13.0721h10.988ZM38.3891,0H19.96826V13.0721H38.3891ZM49.46655,75.28563H8.89043C0,79.32967,0,90.51493,0,90.51493H58.35755S58.35755,79.84446,49.46655,75.28563Zm.31407-8.85887H8.82694a2.48337,2.48337,0,0,0,0,4.96675H49.78063a2.48337,2.48337,0,0,0,0-4.96675"/>
</svg>
