<svg xmlns="http://www.w3.org/2000/svg" viewBox="0 0 41.14014 41.14014">
  <title>facebook</title>
  <path d="M20.56738,2.126A18.44409,18.44409,0,1,1,2.126,20.56836,18.4655,18.4655,0,0,1,20.56738,2.126m0-2.126A20.57007,20.57007,0,1,0,41.14014,20.56836,20.59129,20.59129,0,0,0,20.56738,0Z"/>
  <path d="M24.66652,20.26621H21.9869v9.554H18.01519v-9.554H16.1268V16.89078h1.88839V14.70713a3.72455,3.72455,0,0,1,4.0074-4.00738l2.94167.01245v3.27591H22.82951a.80856.80856,0,0,0-.8426.91975v1.98626h3.02625Z"/>
</svg>
