<svg xmlns="http://www.w3.org/2000/svg" viewBox="0 0 41.14014 41.14014">
  <title>twitter</title>
  <path d="M20.56738,2.126A18.44409,18.44409,0,1,1,2.126,20.56836,18.4655,18.4655,0,0,1,20.56738,2.126m0-2.126A20.57007,20.57007,0,1,0,41.14014,20.56836,20.59129,20.59129,0,0,0,20.56738,0Z"/>
  <path d="M26.1167,28.74561a4.50376,4.50376,0,0,1-1.582.71387,8.03077,8.03077,0,0,1-1.97461.2373,5.86206,5.86206,0,0,1-4.15771-1.37207,5.24833,5.24833,0,0,1-1.47021-4.03223V18.105H14.6084V14.74512h2.32373v-3.668h4.36816v3.668h3.752V18.105h-3.752v6.13184a2.05664,2.05664,0,0,0,.49023,1.4707,1.81271,1.81271,0,0,0,1.38574.51758,2.813,2.813,0,0,0,1.76465-.55957Z" style="fill: #231f20"/>
</svg>
